<svg width="78" height="78" viewBox="0 0 78 78" fill="none" xmlns="http://www.w3.org/2000/svg">
<path d="M73.425 12.225H64.5V9.675C64.497 8.66148 64.093 7.69033 63.3763 6.97366C62.6597 6.25699 61.6885 5.85303 60.675 5.85H51.75V2.025C51.75 1.68685 51.6157 1.36255 51.3766 1.12344C51.1375 0.88433 50.8132 0.75 50.475 0.75H2.025C1.68685 0.75 1.36255 0.88433 1.12344 1.12344C0.88433 1.36255 0.75 1.68685 0.75 2.025V73.425C0.75 73.7631 0.88433 74.0875 1.12344 74.3266C1.36255 74.5657 1.68685 74.7 2.025 74.7H40.5045C40.7691 75.443 41.2563 76.0864 41.8996 76.5427C42.543 76.999 43.3113 77.2459 44.1 77.25H51.75C52.7635 77.247 53.7347 76.843 54.4513 76.1263C55.168 75.4097 55.572 74.4385 55.575 73.425V51.75H56.85C57.1881 51.75 57.5125 51.6157 57.7516 51.3766C57.9907 51.1375 58.125 50.8132 58.125 50.475V45.375C58.125 45.0368 57.9907 44.7125 57.7516 44.4734C57.5125 44.2343 57.1881 44.1 56.85 44.1H51.75V39H73.425C74.4385 38.997 75.4097 38.593 76.1263 37.8763C76.843 37.1597 77.247 36.1885 77.25 35.175V16.05C77.247 15.0365 76.843 14.0653 76.1263 13.3487C75.4097 12.632 74.4385 12.228 73.425 12.225V12.225ZM64.5 22.425V19.875H69.6V31.35H51.75V26.25H60.675C61.6885 26.247 62.6597 25.843 63.3763 25.1263C64.093 24.4097 64.497 23.4385 64.5 22.425V22.425ZM60.675 8.4C61.0131 8.4 61.3375 8.53433 61.5766 8.77344C61.8157 9.01255 61.95 9.33685 61.95 9.675V22.425C61.95 22.7632 61.8157 23.0875 61.5766 23.3266C61.3375 23.5657 61.0131 23.7 60.675 23.7H14.775C14.4368 23.7 14.1125 23.5657 13.8734 23.3266C13.6343 23.0875 13.5 22.7632 13.5 22.425V9.675C13.5 9.33685 13.6343 9.01255 13.8734 8.77344C14.1125 8.53433 14.4368 8.4 14.775 8.4H60.675ZM32.625 27.525C31.6115 27.528 30.6403 27.932 29.9237 28.6487C29.207 29.3653 28.803 30.3365 28.8 31.35V40.275C28.8 40.6132 28.6657 40.9375 28.4266 41.1766C28.1875 41.4157 27.8632 41.55 27.525 41.55C27.1868 41.55 26.8625 41.4157 26.6234 41.1766C26.3843 40.9375 26.25 40.6132 26.25 40.275V36.45C26.25 35.4355 25.847 34.4626 25.1297 33.7453C24.4124 33.028 23.4395 32.625 22.425 32.625C21.4105 32.625 20.4376 33.028 19.7203 33.7453C19.003 34.4626 18.6 35.4355 18.6 36.45V50.475C18.6 50.8132 18.4657 51.1375 18.2266 51.3766C17.9875 51.6157 17.6632 51.75 17.325 51.75C16.9868 51.75 16.6625 51.6157 16.4234 51.3766C16.1843 51.1375 16.05 50.8132 16.05 50.475V26.25H39V36.45C39 36.7882 38.8657 37.1125 38.6266 37.3516C38.3875 37.5907 38.0632 37.725 37.725 37.725C37.3868 37.725 37.0625 37.5907 36.8234 37.3516C36.5843 37.1125 36.45 36.7882 36.45 36.45V31.35C36.447 30.3365 36.043 29.3653 35.3263 28.6487C34.6097 27.932 33.6385 27.528 32.625 27.525V27.525ZM40.275 72.15H3.3V3.3H49.2V5.85H14.775C13.7615 5.85303 12.7903 6.25699 12.0737 6.97366C11.357 7.69033 10.953 8.66148 10.95 9.675V12.225H9.675C8.99932 12.227 8.35189 12.4963 7.87411 12.9741C7.39633 13.4519 7.12702 14.0993 7.125 14.775V17.325C7.12702 18.0007 7.39633 18.6481 7.87411 19.1259C8.35189 19.6037 8.99932 19.873 9.675 19.875H10.95V22.425C10.9541 23.2137 11.201 23.982 11.6573 24.6254C12.1136 25.2687 12.757 25.7559 13.5 26.0205V50.475C13.5 51.4895 13.903 52.4624 14.6203 53.1797C15.3376 53.897 16.3105 54.3 17.325 54.3C18.3395 54.3 19.3124 53.897 20.0297 53.1797C20.747 52.4624 21.15 51.4895 21.15 50.475V36.45C21.15 36.1118 21.2843 35.7875 21.5234 35.5484C21.7625 35.3093 22.0868 35.175 22.425 35.175C22.7632 35.175 23.0875 35.3093 23.3266 35.5484C23.5657 35.7875 23.7 36.1118 23.7 36.45V40.275C23.7 41.2895 24.103 42.2624 24.8203 42.9797C25.5376 43.697 26.5105 44.1 27.525 44.1C28.5395 44.1 29.5124 43.697 30.2297 42.9797C30.947 42.2624 31.35 41.2895 31.35 40.275V31.35C31.35 31.0118 31.4843 30.6875 31.7234 30.4484C31.9625 30.2093 32.2868 30.075 32.625 30.075C32.9632 30.075 33.2875 30.2093 33.5266 30.4484C33.7657 30.6875 33.9 31.0118 33.9 31.35V36.45C33.9 37.4645 34.303 38.4374 35.0203 39.1547C35.7376 39.872 36.7105 40.275 37.725 40.275C38.7395 40.275 39.7124 39.872 40.4297 39.1547C41.147 38.4374 41.55 37.4645 41.55 36.45V26.25H49.2V31.35H47.925C46.9115 31.353 45.9403 31.757 45.2237 32.4737C44.507 33.1903 44.103 34.1615 44.1 35.175V44.1H39C38.6618 44.1 38.3375 44.2343 38.0984 44.4734C37.8593 44.7125 37.725 45.0368 37.725 45.375V50.475C37.725 50.8132 37.8593 51.1375 38.0984 51.3766C38.3375 51.6157 38.6618 51.75 39 51.75H40.275V72.15ZM10.95 14.775V17.325H9.675V14.775H10.95ZM53.025 73.425C53.025 73.7631 52.8907 74.0875 52.6516 74.3266C52.4125 74.5657 52.0882 74.7 51.75 74.7H44.1C43.7618 74.7 43.4375 74.5657 43.1984 74.3266C42.9593 74.0875 42.825 73.7631 42.825 73.425V51.75H53.025V73.425ZM55.575 46.65V49.2H40.275V46.65H55.575ZM74.7 35.175C74.7 35.5132 74.5657 35.8375 74.3266 36.0766C74.0875 36.3157 73.7631 36.45 73.425 36.45H51.75C51.0743 36.452 50.4269 36.7213 49.9491 37.1991C49.4713 37.6769 49.202 38.3243 49.2 39V44.1H46.65V35.175C46.65 34.8368 46.7843 34.5125 47.0234 34.2734C47.2625 34.0343 47.5868 33.9 47.925 33.9H69.6C70.2757 33.898 70.9231 33.6287 71.4009 33.1509C71.8787 32.6731 72.148 32.0257 72.15 31.35V19.875C72.148 19.1993 71.8787 18.5519 71.4009 18.0741C70.9231 17.5963 70.2757 17.327 69.6 17.325H64.5V14.775H73.425C73.7631 14.775 74.0875 14.9093 74.3266 15.1484C74.5657 15.3875 74.7 15.7118 74.7 16.05V35.175Z" fill="#CA2C37"/>
</svg>
