<svg width="111" height="21" viewBox="0 0 111 21" fill="none" xmlns="http://www.w3.org/2000/svg">
<path fill-rule="evenodd" clip-rule="evenodd" d="M106.227 2.27394V19.8976H104.069V2.27394H100.233V0.315752H110.064V2.27394H106.227ZM97.9189 12.6383C97.5432 13.1885 97.0717 13.5801 96.5042 13.8133C95.9367 14.0464 95.2614 14.1629 94.4781 14.1629C94.1104 14.1629 93.6948 14.135 93.2312 14.079C92.7677 14.0231 92.384 13.9578 92.0803 13.8832V19.8976H89.9223V0.595493C90.5297 0.390349 91.1412 0.245816 91.7566 0.161894C92.372 0.0779719 93.0394 0.0360107 93.7588 0.0360107C94.7179 0.0360107 95.5331 0.152569 96.2045 0.385687C96.8759 0.618804 97.4194 1.00578 97.835 1.54661C98.2506 2.08744 98.5543 2.80545 98.7461 3.70062C98.938 4.59579 99.0339 5.70543 99.0339 7.02953C99.0339 8.39094 98.9419 9.52855 98.7581 10.4424C98.5743 11.3562 98.2945 12.0882 97.9189 12.6383ZM96.696 4.51187C96.5761 3.84049 96.3883 3.30898 96.1326 2.91734C95.8768 2.52571 95.5531 2.25063 95.1614 2.09211C94.7698 1.93359 94.3022 1.85433 93.7587 1.85433H92.0803V12.2047H93.7587C94.3022 12.2047 94.7698 12.1255 95.1614 11.967C95.5531 11.8084 95.8768 11.5334 96.1326 11.1417C96.3883 10.7501 96.5761 10.2186 96.696 9.5472C96.8159 8.87582 96.8759 8.0366 96.8759 7.02953C96.8759 6.02247 96.8159 5.18324 96.696 4.51187ZM84.5273 14.8623H79.7317L78.6527 19.8976H76.4947L80.571 0.315752H83.6881L87.7643 19.8976H85.6063L84.5273 14.8623ZM82.1775 3.11316H82.0816L80.0914 12.9041H84.1676L82.1775 3.11316ZM71.8191 5.35109H71.6992L68.2224 17.38H66.0644L62.5876 5.35109H62.4677L61.7484 19.8976H59.5904L60.5495 0.315752H63.1871L67.0954 13.7433H67.1914L71.0997 0.315752H73.7373L74.6964 19.8976H72.5384L71.8191 5.35109ZM55.706 18.0793C55.2584 18.8439 54.7189 19.3848 54.0875 19.7018C53.4561 20.0188 52.7327 20.1774 51.9175 20.1774C51.1022 20.1774 50.3789 20.0188 49.7475 19.7018C49.1161 19.3848 48.5766 18.8439 48.129 18.0793C47.6814 17.3147 47.3417 16.2843 47.1099 14.9882C46.8782 13.692 46.7623 12.0649 46.7623 10.1067C46.7623 8.1485 46.8782 6.52134 47.1099 5.22521C47.3417 3.92907 47.6814 2.89869 48.129 2.13407C48.5766 1.36944 49.1161 0.82861 49.7475 0.51157C50.3789 0.194531 51.1022 0.0360107 51.9175 0.0360107C52.7327 0.0360107 53.4561 0.194531 54.0875 0.51157C54.7189 0.82861 55.2584 1.36944 55.706 2.13407C56.1536 2.89869 56.4933 3.92907 56.725 5.22521C56.9568 6.52134 57.0727 8.1485 57.0727 10.1067C57.0727 12.0649 56.9568 13.692 56.725 14.9882C56.4933 16.2843 56.1536 17.3147 55.706 18.0793ZM54.663 5.96652C54.4951 4.88485 54.2753 4.02698 54.0036 3.3929C53.7318 2.75882 53.4121 2.32056 53.0444 2.07812C52.6768 1.83568 52.3011 1.71446 51.9175 1.71446C51.5338 1.71446 51.1582 1.83568 50.7905 2.07812C50.4229 2.32056 50.1032 2.75882 49.8314 3.3929C49.5597 4.02698 49.3399 4.88485 49.172 5.96652C49.0042 7.04818 48.9203 8.42824 48.9203 10.1067C48.9203 11.7851 49.0042 13.1652 49.172 14.2469C49.3399 15.3285 49.5597 16.1864 49.8314 16.8205C50.1032 17.4545 50.4229 17.8928 50.7905 18.1353C51.1582 18.3777 51.5338 18.4989 51.9175 18.4989C52.3011 18.4989 52.6768 18.3777 53.0444 18.1353C53.4121 17.8928 53.7318 17.4545 54.0036 16.8205C54.2753 16.1864 54.4951 15.3285 54.663 14.2469C54.8308 13.1652 54.9147 11.7851 54.9147 10.1067C54.9147 8.42824 54.8308 7.04818 54.663 5.96652ZM41.7269 10.9459H36.6916V19.8976H34.5336V0.315752H36.6916V8.98772H41.7269V0.315752H43.8849V19.8976H41.7269V10.9459ZM30.3383 19.8976L27.3411 11.5054L24.3438 19.8976H22.1858L25.7825 9.82695L22.5455 0.315752H24.7035L27.3411 8.1485L29.9786 0.315752H32.1366L28.8996 9.82695L32.4963 19.8976H30.3383ZM12.7146 0.315752H20.867V2.27394H14.8726V8.70798H20.1477V10.6662H14.8726V17.9394H20.867V19.8976H12.7146V0.315752ZM6.95993 19.8976H4.80192V2.27394H0.965477V0.315752H10.7964V2.27394H6.95993V19.8976Z" fill="white"/>
</svg>
