<svg width="36" height="36" viewBox="0 0 36 36" fill="none" xmlns="http://www.w3.org/2000/svg">
<path d="M18 0C8.05957 0 0 8.05957 0 18C0 27.9404 8.05957 36 18 36C27.9404 36 36 27.9404 36 18C36 8.05957 27.9404 0 18 0Z" fill="white" fill-opacity="0.1"/>
<rect x="8.4" y="9.25" width="18" height="19.125" fill="white"/>
<path d="M27.1429 7H8.85714C7.28 7 6 8.2 6 9.67857V26.8214C6 28.3 7.28 29.5 8.85714 29.5H27.1429C28.72 29.5 30 28.3 30 26.8214V9.67857C30 8.2 28.72 7 27.1429 7ZM12.6229 24.9946L15.5714 22.225C14.5829 21.9679 13.64 21.5661 12.7829 21.0036C12.2686 20.6661 12.1371 20.0018 12.4971 19.5143C12.72 19.2143 13.0743 19.0536 13.44 19.0536C13.6629 19.0536 13.8914 19.1179 14.0914 19.2464C15.24 19.9964 16.5943 20.3929 18 20.3929C19.4114 20.3929 20.7657 19.9964 21.92 19.2411C22.1143 19.1125 22.3429 19.0482 22.5714 19.0482C22.9314 19.0482 23.2857 19.2089 23.5086 19.5089C23.8686 19.9911 23.7429 20.6607 23.2229 20.9982C22.3657 21.5607 21.4229 21.9679 20.4286 22.225L23.3771 24.9946C23.8286 25.4125 23.8286 26.0875 23.3771 26.5054C23.1543 26.7143 22.8629 26.8214 22.5714 26.8214C22.28 26.8214 21.9886 26.7143 21.7657 26.5054L18 22.9804L14.2343 26.5054C14.0114 26.7143 13.72 26.8214 13.4286 26.8214C13.1371 26.8214 12.8457 26.7143 12.6229 26.5054C12.1714 26.0875 12.1714 25.4125 12.6229 24.9946ZM18 18.25C15.4743 18.25 13.4286 16.3321 13.4286 13.9643C13.4286 11.5964 15.4743 9.67857 18 9.67857C20.5257 9.67857 22.5714 11.5964 22.5714 13.9643C22.5714 16.3321 20.5257 18.25 18 18.25Z" fill="#47556C"/>
<path d="M18 12.2501C17.4696 12.2501 16.9609 12.4608 16.5858 12.8359C16.2107 13.211 16 13.7197 16 14.2501C16 14.7805 16.2107 15.2892 16.5858 15.6643C16.9609 16.0394 17.4696 16.2501 18 16.2501C18.5304 16.2501 19.0391 16.0394 19.4142 15.6643C19.7893 15.2892 20 14.7805 20 14.2501C20 13.7197 19.7893 13.211 19.4142 12.8359C19.0391 12.4608 18.5304 12.2501 18 12.2501Z" fill="#47556C"/>
</svg>
